<svg id="Layer_1" enable-background="new 0 0 510 510" height="512" viewBox="0 0 510 510" width="512" xmlns="http://www.w3.org/2000/svg"><g><path d="m285 425.842v83.172l45-40 45 40v-83.172c-13.647 6.5-28.905 10.145-45 10.145s-31.353-3.645-45-10.145z"/><circle cx="330" cy="330.986" r="75"/><path d="m0 .986v390h243.883c-11.895-17.02-18.883-37.707-18.883-60 0-57.897 47.103-105 105-105s105 47.103 105 105c0 22.293-6.988 42.98-18.883 60h93.883v-390h-510zm180 330h-90v-30h90zm15-60h-105v-30h105zm45-60h-150v-30h150zm180-60h-330v-30h330zm0-60h-330v-30h330z"/></g></svg>