<svg width="700" height="612" viewBox="0 0 700 612" fill="none" xmlns="http://www.w3.org/2000/svg">
<g clip-path="url(#clip0)">
<path opacity="0.2" d="M633.717 219.881H593.315V240.86H633.717V219.881Z" fill="#14B874"/>
<path opacity="0.2" d="M636.825 245.521H596.423V266.499H636.825V245.521Z" fill="#14B874"/>
<path opacity="0.2" d="M603.415 67.5961H563.013V88.5742H603.415V67.5961Z" fill="#14B874"/>
<path opacity="0.2" d="M632.163 91.682H591.761V112.66H632.163V91.682Z" fill="#14B874"/>
<path opacity="0.2" d="M554.466 69.15H514.064V90.1281H554.466V69.15Z" fill="#14B874"/>
<path opacity="0.2" d="M684.22 115.768H643.818V136.746H684.22V115.768Z" fill="#14B874"/>
<path opacity="0.2" d="M635.271 117.322H594.869V138.3H635.271V117.322Z" fill="#14B874"/>
<path opacity="0.2" d="M583.214 93.236H542.812V114.214H583.214V93.236Z" fill="#14B874"/>
<path opacity="0.2" d="M681.889 277.377H641.487V298.355H681.889V277.377Z" fill="#14B874"/>
<path opacity="0.2" d="M632.94 278.931H592.538V299.909H632.94V278.931Z" fill="#14B874"/>
<path d="M101.588 214.443C101.588 214.443 158.532 271.387 126.389 355.851C94.2461 440.315 181.484 580.891 181.484 580.891C181.484 580.891 180.551 580.751 178.819 580.448C61.8699 559.804 3.76057 426.049 68.8237 326.714C92.9718 289.739 112.816 246.407 101.588 214.443Z" fill="#14B874"/>
<path d="M101.588 214.443C101.588 214.443 133.731 284.245 101.588 341.181C69.4453 398.118 96.0797 557.955 181.492 580.891" stroke="#535461" stroke-width="2" stroke-miterlimit="10"/>
<path d="M0.163086 444.751C0.163086 444.751 65.1408 434.402 71.0613 492.635C76.9817 550.869 196.013 558.942 196.013 558.942C196.013 558.942 195.236 559.47 193.783 560.426C95.5046 624.914 1.56162 601.52 15.7257 515.859C20.9858 484.011 20.5507 452.023 0.163086 444.751Z" fill="#14B874"/>
<path opacity="0.2" d="M0.163086 444.751C0.163086 444.751 65.1408 434.402 71.0613 492.635C76.9817 550.869 196.013 558.942 196.013 558.942C196.013 558.942 195.236 559.47 193.783 560.426C95.5046 624.914 1.56162 601.52 15.7257 515.859C20.9858 484.011 20.5507 452.023 0.163086 444.751Z" fill="#F5F5F5"/>
<path d="M0.163086 444.751C0.163086 444.751 50.596 455.823 46.4547 501.679C42.3135 547.536 121.354 602.537 196.013 558.942" stroke="#535461" stroke-width="2" stroke-miterlimit="10"/>
<path opacity="0.2" d="M40.8918 220.658H0.489502V241.637H40.8918V220.658Z" fill="#14B874"/>
<path opacity="0.2" d="M69.6395 244.744H29.2373V265.722H69.6395V244.744Z" fill="#14B874"/>
<path opacity="0.2" d="M287.967 0H247.565V20.9781H287.967V0Z" fill="#14B874"/>
<path opacity="0.2" d="M606.523 386.929H566.121V407.907H606.523V386.929Z" fill="#14B874"/>
<path opacity="0.2" d="M72.7475 270.384H32.3452V291.362H72.7475V270.384Z" fill="#14B874"/>
<path opacity="0.2" d="M316.715 24.086H276.312V45.064H316.715V24.086Z" fill="#14B874"/>
<path opacity="0.2" d="M169.091 166.271H128.689V187.249H169.091V166.271Z" fill="#14B874"/>
<path opacity="0.2" d="M197.839 190.357H157.437V211.335H197.839V190.357Z" fill="#14B874"/>
<path opacity="0.2" d="M274.759 177.148H234.356V198.126H274.759V177.148Z" fill="#14B874"/>
<path opacity="0.2" d="M200.947 215.997H160.544V236.975H200.947V215.997Z" fill="#14B874"/>
<path opacity="0.2" d="M660.911 386.929H620.509V407.907H660.911V386.929Z" fill="#14B874"/>
<path opacity="0.2" d="M633.717 219.881H593.315V240.86H633.717V219.881Z" fill="#14B874"/>
<path opacity="0.2" d="M636.825 245.521H596.423V266.499H636.825V245.521Z" fill="#14B874"/>
<path opacity="0.2" d="M603.415 67.5961H563.013V88.5742H603.415V67.5961Z" fill="#14B874"/>
<path opacity="0.2" d="M632.163 91.682H591.761V112.66H632.163V91.682Z" fill="#14B874"/>
<path opacity="0.2" d="M554.466 69.15H514.064V90.1281H554.466V69.15Z" fill="#14B874"/>
<path opacity="0.2" d="M684.22 115.768H643.818V136.746H684.22V115.768Z" fill="#14B874"/>
<path opacity="0.2" d="M635.271 117.322H594.869V138.3H635.271V117.322Z" fill="#14B874"/>
<path opacity="0.2" d="M583.214 93.236H542.812V114.214H583.214V93.236Z" fill="#14B874"/>
<path opacity="0.2" d="M681.889 277.377H641.487V298.355H681.889V277.377Z" fill="#14B874"/>
<path opacity="0.2" d="M632.94 278.931H592.538V299.909H632.94V278.931Z" fill="#14B874"/>
<path opacity="0.2" d="M40.8918 220.658H0.489502V241.637H40.8918V220.658Z" fill="#14B874"/>
<path opacity="0.2" d="M69.6395 244.744H29.2373V265.722H69.6395V244.744Z" fill="#14B874"/>
<path opacity="0.2" d="M287.967 0H247.565V20.9781H287.967V0Z" fill="#14B874"/>
<path opacity="0.2" d="M606.523 386.929H566.121V407.907H606.523V386.929Z" fill="#14B874"/>
<path opacity="0.2" d="M72.7475 270.384H32.3452V291.362H72.7475V270.384Z" fill="#14B874"/>
<path opacity="0.2" d="M316.715 24.086H276.312V45.064H316.715V24.086Z" fill="#14B874"/>
<path opacity="0.2" d="M169.091 166.271H128.689V187.249H169.091V166.271Z" fill="#14B874"/>
<path opacity="0.2" d="M197.839 190.357H157.437V211.335H197.839V190.357Z" fill="#14B874"/>
<path opacity="0.2" d="M274.759 177.148H234.356V198.126H274.759V177.148Z" fill="#14B874"/>
<path opacity="0.2" d="M200.947 215.997H160.544V236.975H200.947V215.997Z" fill="#14B874"/>
<path opacity="0.2" d="M660.911 386.929H620.509V407.907H660.911V386.929Z" fill="#14B874"/>
<path d="M559.921 303.879C557.305 289.32 555.7 274.598 555.119 259.818C554.603 247.645 550.334 235.93 542.897 226.279C535.461 216.628 525.221 209.514 513.583 205.912C509.34 204.606 504.671 203.386 499.512 202.291C454.292 192.688 440.556 201.071 438.994 202.174C437.671 199.77 436.521 197.275 435.552 194.708C435.474 194.444 435.404 194.179 435.327 193.931C444.276 184.387 449.729 172.093 450.796 159.053C458.34 151.407 462.746 142.177 462.746 132.24C462.746 123.693 459.482 115.675 453.772 108.736V95.2328C453.772 79.6605 447.586 64.726 436.574 53.7147C425.563 42.7035 410.629 36.5174 395.056 36.5174H390.294C382.583 36.5174 374.948 38.0361 367.824 40.9869C360.701 43.9376 354.228 48.2625 348.776 53.7147C343.323 59.167 338.998 65.6397 336.048 72.7634C333.097 79.887 331.578 87.5222 331.578 95.2328V109.785C326.396 116.475 323.459 124.113 323.459 132.224C323.459 141.952 327.686 150.996 334.943 158.548C335.934 172.065 341.637 184.807 351.057 194.552C351.375 196.759 351.702 199.129 352.02 201.631L271.138 218.716C271.138 218.716 239.951 219.998 219.858 261.449C202.866 296.56 169.052 386.766 159.037 413.618C157.227 418.482 156.201 421.271 156.201 421.271C156.201 421.271 156.536 420.937 157.165 420.362L156.201 422.98C156.201 422.98 156.691 422.483 157.623 421.667C156.209 432.902 156.007 452.194 170.723 454.595C183.061 456.608 214.855 457.439 238.871 457.773H240.533C256.453 457.983 268.566 457.983 268.566 457.983V457.773H526.861V455.124C526.864 452.721 526.38 450.342 525.439 448.131L525.797 447.696C527.179 449.521 528.098 451.654 528.477 453.911C528.447 454.131 528.406 454.349 528.353 454.564L528.508 454.168C528.569 454.873 528.516 455.584 528.353 456.273C528.353 456.273 561.49 370.893 561.133 319.908C561.228 314.539 560.822 309.173 559.921 303.879ZM353.364 213.168C352.936 210.733 352.661 208.273 352.541 205.803C352.541 205.803 352.541 205.756 352.541 205.733C352.828 208.134 353.108 210.62 353.364 213.168ZM252.965 396.564V416.912L240.223 419.639L252.965 396.564Z" fill="url(#paint0_linear)"/>
<path d="M391.366 44.7299C406.938 44.7299 421.872 50.916 432.884 61.9273C443.895 72.9385 450.081 87.873 450.081 103.445V128.495H332.65V103.445C332.65 87.873 338.836 72.9385 349.848 61.9273C360.859 50.916 375.793 44.7299 391.366 44.7299Z" fill="#B81458"/>
<path d="M391.777 182.696C428.741 182.696 458.705 162.106 458.705 136.707C458.705 111.308 428.741 90.7186 391.777 90.7186C354.814 90.7186 324.85 111.308 324.85 136.707C324.85 162.106 354.814 182.696 391.777 182.696Z" fill="#B81458"/>
<path d="M348.874 181.258C348.874 181.258 362.859 254.348 348.874 274.059C334.888 293.771 391.607 301.572 391.607 301.572L450.314 280.221L458.527 227.659C458.527 227.659 422.786 207.535 430.191 166.885L348.874 181.258Z" fill="#F7C4A7"/>
<path d="M522.152 427.635C522.152 427.635 525.851 443.648 505.727 446.523C493.845 448.27 481.762 448.126 469.925 446.095L465.488 405.872H512.301L522.152 427.635Z" fill="#F7C4A7"/>
<path d="M166.815 407.138C166.815 407.138 157.926 443.259 178.05 446.523C198.173 449.786 272.062 449.809 272.062 449.809V407.076L238.606 414.224L207.201 384.109L166.815 407.138Z" fill="#F7C4A7"/>
<path opacity="0.1" d="M353.193 204.87L274.557 221.498C274.557 221.498 244.581 222.733 225.281 262.56C205.981 302.388 164.095 416.135 164.095 416.135C164.095 416.135 199.836 379.999 241.706 418.598L269.631 368.096L263.469 448.17H479.839V410.386C479.839 410.386 525.004 434.612 521.725 448.162C521.725 448.162 560.379 348.57 552.027 303.312C549.512 289.321 547.97 275.172 547.412 260.967C546.918 249.269 542.816 238.009 535.669 228.734C528.521 219.46 518.678 212.625 507.491 209.167C503.42 207.916 498.944 206.743 493.972 205.694C447.571 195.842 435.699 205.694 435.699 205.694C435.699 205.694 426.71 234.939 426.873 248.194C427.075 265.233 402.647 276.53 402.647 276.53C402.647 276.53 366.511 267.906 364.871 260.929C363.232 253.951 350.303 213.083 353.193 204.87Z" fill="black"/>
<path d="M353.193 203.231L274.556 219.858C274.556 219.858 244.581 221.094 225.281 260.921C205.981 300.748 164.087 414.512 164.087 414.512C164.087 414.512 199.828 378.375 241.699 416.974L269.623 366.472L263.461 446.523H479.839V408.746C479.839 408.746 525.004 432.972 521.725 446.523C521.725 446.523 560.379 346.931 552.027 301.673C549.512 287.681 547.97 273.533 547.411 259.328C546.918 247.629 542.816 236.37 535.669 227.095C528.521 217.82 518.678 210.985 507.491 207.528C503.42 206.277 498.944 205.104 493.972 204.055C447.571 194.203 435.699 204.055 435.699 204.055C435.699 204.055 426.71 233.3 426.873 246.555C427.075 263.594 402.647 274.891 402.647 274.891C402.647 274.891 366.51 266.266 364.871 259.289C363.232 252.312 350.303 211.444 353.193 203.231Z" fill="#999999"/>
<path opacity="0.1" d="M433.547 199.742C430.244 190.391 429.504 180.325 431.403 170.591L350.085 184.957C350.085 184.957 351.259 191.103 352.587 200.31C357.841 205.762 364.149 210.088 371.128 213.026C378.107 215.963 385.61 217.451 393.181 217.398C400.753 217.345 408.234 215.752 415.171 212.717C422.108 209.682 428.354 205.268 433.532 199.742H433.547Z" fill="black"/>
<path d="M447.416 157.856C447.352 172.509 441.533 186.549 431.212 196.951C420.891 207.352 406.896 213.28 392.244 213.457C377.593 213.635 363.458 208.047 352.889 197.899C342.319 187.75 336.161 173.855 335.743 159.208C335.743 158.758 335.743 158.307 335.743 157.856C335.74 147.4 338.673 137.152 344.207 128.281C349.741 119.409 357.655 112.268 367.047 107.672C368.72 106.854 370.439 106.118 372.206 105.465C381.392 102.088 391.302 101.167 400.953 102.793C413.323 104.899 424.622 111.113 433.026 120.432C441.43 129.75 446.447 141.629 447.268 154.15C447.367 155.378 447.416 156.613 447.416 157.856Z" fill="#F7C4A7"/>
<g opacity="0.1">
<path opacity="0.1" d="M372.12 106.778L372.198 106.732C370.432 107.385 368.712 108.12 367.039 108.938C357.647 113.535 349.733 120.675 344.199 129.547C338.665 138.419 335.732 148.666 335.735 159.123C335.735 159.573 335.735 160.024 335.735 160.475C337.471 160.428 339.178 160.017 340.746 159.27C354.359 152.915 362.501 133.475 365.734 119.917C366.899 115.061 367.994 109.591 372.12 106.778Z" fill="black"/>
<path opacity="0.1" d="M414.861 108.34C410.441 106.31 405.773 104.87 400.977 104.059C404.91 104.964 408.423 107.171 410.945 110.321C412.181 112.003 413.207 113.829 413.999 115.76C406.567 112.511 398.518 110.915 390.408 111.082C382.299 111.25 374.322 113.177 367.031 116.731C370.535 124.416 381.405 128.603 388.662 131.408C396.608 134.475 404.636 137.28 412.748 139.823L405.569 133.996L421.784 136.575C421.958 133.348 421.575 130.115 420.649 127.018C423.757 129.52 427.875 130.359 431.247 132.457C437.564 136.443 440.198 144.112 443.64 150.755C444.549 152.511 445.621 154.306 447.261 155.417C446.598 145.38 443.238 135.708 437.535 127.422C431.833 119.137 423.999 112.544 414.861 108.34Z" fill="black"/>
</g>
<path d="M372.12 105.512L372.198 105.465C370.432 106.118 368.712 106.854 367.039 107.672C357.647 112.268 349.733 119.409 344.199 128.281C338.665 137.153 335.732 147.4 335.735 157.856C335.735 158.307 335.735 158.758 335.735 159.208C337.471 159.161 339.178 158.751 340.746 158.004C354.359 151.648 362.501 132.209 365.734 118.651C366.899 113.826 367.994 108.332 372.12 105.512Z" fill="#111111"/>
<path d="M414.861 107.082C410.441 105.051 405.773 103.612 400.977 102.8C404.91 103.705 408.423 105.912 410.945 109.063C412.181 110.744 413.207 112.571 413.999 114.502C406.567 111.252 398.518 109.656 390.408 109.824C382.299 109.991 374.322 111.919 367.031 115.473C370.535 123.157 381.405 127.345 388.662 130.15C396.608 133.216 404.636 136.021 412.748 138.564L405.569 132.737L421.784 135.316C421.958 132.089 421.575 128.856 420.649 125.76C423.757 128.262 427.875 129.101 431.247 131.199C437.564 135.184 440.198 142.853 443.64 149.496C444.549 151.252 445.621 153.047 447.261 154.158C446.598 144.121 443.238 134.45 437.535 126.164C431.833 117.878 423.999 111.285 414.861 107.082Z" fill="#111111"/>
<path opacity="0.1" d="M329.364 148.649C329.364 148.649 386.859 77.1683 453.375 148.649L447.626 132.636C447.626 132.636 416.415 87.0591 394.248 96.8955C372.081 106.732 350.311 113.732 350.311 113.732L329.364 148.649Z" fill="black"/>
<path d="M329.364 147.383C329.364 147.383 386.859 75.9018 453.375 147.383L447.626 131.369C447.626 131.369 416.415 85.7926 394.248 95.629C372.081 105.465 350.311 112.466 350.311 112.466L329.364 147.383Z" fill="#B81458"/>
<path opacity="0.1" d="M282.14 301.37C282.14 301.37 269.825 334.22 287.066 363.783C304.307 393.347 271.876 405.67 271.876 405.67" fill="black"/>
<path opacity="0.1" d="M481.704 271.806C481.704 271.806 503.055 298.907 489.092 323.133C475.13 347.358 475.954 405.67 475.954 405.67" fill="black"/>
<path d="M263.252 429.895H500.592C505.819 429.895 510.833 431.972 514.53 435.669C518.227 439.366 520.303 444.379 520.303 449.607H243.548C243.548 444.381 245.624 439.368 249.319 435.672C253.013 431.975 258.025 429.898 263.252 429.895Z" fill="#444444"/>
<path d="M287.4 294.385H476.451C480.431 294.385 484.371 295.169 488.047 296.691C491.724 298.214 495.064 300.446 497.878 303.26C500.692 306.074 502.924 309.414 504.446 313.09C505.969 316.767 506.753 320.707 506.753 324.686V434.41H257.098V324.686C257.098 316.65 260.291 308.943 265.973 303.26C271.656 297.577 279.363 294.385 287.4 294.385Z" fill="#444444"/>
<path d="M381.716 385.344C389.882 385.344 396.501 378.724 396.501 370.559C396.501 362.393 389.882 355.773 381.716 355.773C373.55 355.773 366.93 362.393 366.93 370.559C366.93 378.724 373.55 385.344 381.716 385.344Z" fill="white"/>
<path opacity="0.1" d="M332.65 115.146C332.65 115.146 389.151 58.6765 450.089 114.113" stroke="black" stroke-miterlimit="10"/>
<path d="M464.362 111.549H458.69V143.708H464.362V111.549Z" fill="#6A5C99"/>
<path d="M451.122 132.356C456.307 132.356 461.279 134.416 464.945 138.082C468.611 141.748 470.671 146.72 470.671 151.905V153.163C470.671 158.348 468.611 163.32 464.945 166.986C461.279 170.652 456.307 172.712 451.122 172.712V132.356Z" fill="#14B874"/>
<path d="M456.165 134.881C456.165 132.444 454.189 130.468 451.752 130.468C449.314 130.468 447.338 132.444 447.338 134.881V170.194C447.338 172.632 449.314 174.608 451.752 174.608C454.189 174.608 456.165 172.632 456.165 170.194V134.881Z" fill="#6A5C99"/>
<path d="M317.795 144.337H323.467V112.178H317.795V144.337Z" fill="#6A5C99"/>
<path d="M331.034 173.341C325.85 173.341 320.877 171.282 317.211 167.616C313.545 163.95 311.486 158.977 311.486 153.793V152.534C311.486 149.967 311.991 147.425 312.974 145.053C313.956 142.681 315.396 140.526 317.211 138.711C319.027 136.896 321.182 135.456 323.553 134.474C325.925 133.491 328.467 132.986 331.034 132.986V173.341Z" fill="#14B874"/>
<path d="M325.992 170.816C325.992 173.253 327.968 175.229 330.405 175.229C332.842 175.229 334.818 173.253 334.818 170.816V135.503C334.818 133.066 332.842 131.09 330.405 131.09C327.968 131.09 325.992 133.066 325.992 135.503V170.816Z" fill="#6A5C99"/>
<path d="M458.022 77.1761C450.337 61.2016 433.602 41.8863 397.527 40.3401V40.2935H397.092L384.311 40.8995V40.9617C348.477 42.6088 331.819 61.8543 324.158 77.7743C319.056 88.5667 316.347 100.335 316.218 112.272L320.631 112.163L325.044 112.062C325.234 101.434 327.679 90.9685 332.215 81.3561C341.943 61.3726 359.844 50.7514 385.414 49.7647L396.719 49.1353C422.305 50.1143 440.214 60.751 449.933 80.7268C454.478 90.3427 456.927 100.814 457.12 111.448L461.534 111.549L465.947 111.658C465.82 99.7272 463.116 87.9649 458.022 77.1761Z" fill="#14B874"/>
<path d="M659.637 449.863H57.7131V611.472H659.637V449.863Z" fill="#DDDDDD"/>
<path opacity="0.1" d="M659.637 460.741H57.7131V481.719H659.637V460.741Z" fill="black"/>
<path d="M700 447.533H17.3342V468.511H700V447.533Z" fill="#DDDDDD"/>
</g>
<defs>
<linearGradient id="paint0_linear" x1="358.671" y1="458.022" x2="358.671" y2="36.5174" gradientUnits="userSpaceOnUse">
<stop stop-color="#808080" stop-opacity="0.25"/>
<stop offset="0.54" stop-color="#808080" stop-opacity="0.12"/>
<stop offset="1" stop-color="#808080" stop-opacity="0.1"/>
</linearGradient>
<clipPath id="clip0">
<rect width="700" height="611.472" fill="white"/>
</clipPath>
</defs>
</svg>
