<svg width="40" height="40" viewBox="0 0 40 40" fill="none" xmlns="http://www.w3.org/2000/svg">
<path fill-rule="evenodd" clip-rule="evenodd" d="M40 20C40 31.0457 31.0457 40 20 40C8.95431 40 0 31.0457 0 20C0 8.95431 8.95431 0 20 0C31.0457 0 40 8.95431 40 20ZM11.5953 20.7718H15.1812C16.4706 20.7718 17.2988 21.2894 17.2988 22.72C17.2988 24.1506 16.3341 24.5365 15.1247 24.5365H11.5953V20.7718ZM11.5953 15.2659H14.7106H14.72C15.8117 15.2659 16.8188 15.5294 16.8376 16.8471C16.8376 18.0141 16.0188 18.4847 14.9553 18.4847H11.5953V15.2659ZM15.5294 26.7859C18.0282 26.7859 20.4282 25.5906 20.4282 22.7953H20.4376C20.4376 21.0824 19.5812 19.7929 17.8823 19.2941C18.4488 19.0649 18.9328 18.6701 19.2712 18.1613C19.6096 17.6524 19.7865 17.0534 19.7788 16.4424C19.7788 13.8824 17.9812 12.9412 15.3412 12.9412H8.79998V26.7859H15.5294ZM29.3035 13.8541H23.7223L23.7317 15.7082H29.3035V13.8541ZM23.92 20.3388C23.9576 19.5765 24.4659 18.5976 26.2164 18.5976L26.2259 18.6165C27.5717 18.6165 28.1741 18.9741 28.4188 20.3388H23.92ZM26.3859 24.96C24.8612 24.96 23.9953 23.8682 23.92 22.1365L31.1906 22.1553C31.3882 19.0871 29.7317 16.5553 26.3059 16.5553C23.247 16.5553 21.1294 18.8329 21.1294 21.8165C21.1294 24.9035 23.1341 27.0588 26.3059 27.0588C28.5835 27.0588 30.3623 25.8259 31.1341 23.4729H28.7059C28.4945 23.9111 28.1657 24.282 27.7562 24.5446C27.3466 24.8071 26.8723 24.9509 26.3859 24.96Z" fill="white"/>
</svg>
