<svg width="40" height="40" viewBox="0 0 40 40" fill="none" xmlns="http://www.w3.org/2000/svg">
<path fill-rule="evenodd" clip-rule="evenodd" d="M40 20C40 31.0457 31.0457 40 20 40C8.95431 40 0 31.0457 0 20C0 8.95431 8.95431 0 20 0C31.0457 0 40 8.95431 40 20ZM20 10.8235H20C17.0117 10.8235 16.6541 10.8235 15.4729 10.9082C14.7624 10.9144 14.0584 11.045 13.3929 11.2941C12.9178 11.4813 12.4863 11.7642 12.1252 12.1252C11.7642 12.4863 11.4813 12.9178 11.2941 13.3929C11.0386 14.0572 10.9016 14.7612 10.8894 15.4729C10.8235 16.6541 10.8235 17.0117 10.8235 19.9999V20C10.8235 22.9882 10.8235 23.3458 10.9082 24.527C10.9144 25.2376 11.045 25.9415 11.2941 26.607C11.478 27.0873 11.7594 27.5243 12.1207 27.8904C12.4819 28.2565 12.9151 28.5438 13.3929 28.7341C14.0584 28.9832 14.7624 29.1138 15.4729 29.12C16.6541 29.1858 17.007 29.1858 20 29.1858C22.9929 29.1858 23.3458 29.1764 24.527 29.12C25.2376 29.1138 25.9415 28.9832 26.607 28.7341C27.0887 28.547 27.5262 28.2617 27.8916 27.8963C28.257 27.5309 28.5423 27.0934 28.7294 26.6117C28.9785 25.9462 29.1091 25.2423 29.1153 24.5317C29.1811 23.3505 29.1811 22.9929 29.1811 20.0047C29.1811 17.0164 29.1717 16.6588 29.1153 15.4776C29.1091 14.7671 28.9785 14.0631 28.7294 13.3976C28.5423 12.9159 28.257 12.4784 27.8916 12.113C27.5262 11.7476 27.0887 11.4623 26.607 11.2753C25.9415 11.0262 25.2376 10.8956 24.527 10.8894C23.3458 10.8235 22.9882 10.8235 20 10.8235ZM15.3835 8.87055C16.5788 8.80467 16.96 8.80466 20 8.80466L20.0423 8.78114C23.0823 8.78114 23.4635 8.79525 24.6588 8.84702C25.5884 8.86624 26.5081 9.04286 27.3788 9.36937C28.1291 9.65518 28.8104 10.0964 29.3781 10.6641C29.9459 11.2319 30.3871 11.9132 30.6729 12.6635C30.9994 13.5341 31.176 14.4538 31.1953 15.3835C31.2611 16.5788 31.2611 16.96 31.2611 20C31.2611 23.04 31.247 23.4211 31.1953 24.6164C31.176 25.5461 30.9994 26.4658 30.6729 27.3364C30.3871 28.0867 29.9459 28.7681 29.3781 29.3358C28.8104 29.9035 28.1291 30.3447 27.3788 30.6305C26.5081 30.9571 25.5884 31.1337 24.6588 31.1529C23.4635 31.2188 23.0823 31.2188 20.0423 31.2188C17.0023 31.2188 16.6211 31.2047 15.4258 31.1529C14.4962 31.1337 13.5765 30.9571 12.7058 30.6305C11.9556 30.3447 11.2742 29.9035 10.7065 29.3358C10.1388 28.7681 9.69753 28.0867 9.41172 27.3364C9.07539 26.4816 8.88451 25.5766 8.84702 24.6588C8.78114 23.4635 8.78114 23.0823 8.78114 20.0423C8.78114 17.0023 8.79525 16.6211 8.84702 15.4258C8.86624 14.4962 9.04286 13.5765 9.36937 12.7058C9.65518 11.9556 10.0964 11.2742 10.6641 10.7065C11.2319 10.1388 11.9132 9.69753 12.6635 9.41172C13.533 9.07878 14.4527 8.89579 15.3835 8.87055ZM16.805 15.2185C17.7507 14.5866 18.8625 14.2493 19.9999 14.2493C21.5251 14.2493 22.9877 14.8552 24.0662 15.9336C25.1446 17.0121 25.7505 18.4747 25.7505 19.9999C25.7505 21.1373 25.4132 22.2491 24.7813 23.1948C24.1495 24.1404 23.2513 24.8775 22.2006 25.3127C21.1498 25.748 19.9935 25.8619 18.878 25.64C17.7625 25.4181 16.7379 24.8704 15.9336 24.0662C15.1294 23.2619 14.5817 22.2373 14.3598 21.1218C14.1379 20.0063 14.2518 18.85 14.6871 17.7992C15.1223 16.7485 15.8594 15.8503 16.805 15.2185ZM17.9266 23.1027C18.5403 23.5128 19.2618 23.7317 19.9999 23.7317C20.9896 23.7317 21.9388 23.3385 22.6387 22.6387C23.3385 21.9388 23.7317 20.9896 23.7317 19.9999C23.7317 19.2618 23.5128 18.5403 23.1028 17.9266C22.6927 17.313 22.1099 16.8346 21.428 16.5522C20.7461 16.2697 19.9958 16.1958 19.2719 16.3398C18.548 16.4838 17.883 16.8392 17.3611 17.3611C16.8392 17.883 16.4838 18.548 16.3398 19.2719C16.1959 19.9958 16.2698 20.7461 16.5522 21.428C16.8346 22.1099 17.313 22.6927 17.9266 23.1027ZM25.9764 15.3693C26.7197 15.3693 27.3223 14.7667 27.3223 14.0234C27.3223 13.2801 26.7197 12.6775 25.9764 12.6775C25.2331 12.6775 24.6305 13.2801 24.6305 14.0234C24.6305 14.7667 25.2331 15.3693 25.9764 15.3693Z" fill="white"/>
</svg>
