<svg width="40" height="40" viewBox="0 0 40 40" fill="none" xmlns="http://www.w3.org/2000/svg">
<path fill-rule="evenodd" clip-rule="evenodd" d="M40 20C40 31.0457 31.0457 40 20 40C8.95431 40 0 31.0457 0 20C0 8.95431 8.95431 0 20 0C31.0457 0 40 8.95431 40 20ZM8.79998 31.2517L10.3812 25.4729C9.15592 23.3459 8.66658 20.8742 8.989 18.4409C9.31142 16.0075 10.4276 13.7485 12.1645 12.0141C13.9013 10.2796 16.1619 9.16655 18.5957 8.8475C21.0294 8.52845 23.5005 9.02121 25.6257 10.2494C27.751 11.4776 29.4117 13.3725 30.3504 15.6406C31.2892 17.9086 31.4535 20.4229 30.8179 22.7938C30.1823 25.1647 28.7823 27.2597 26.8349 28.754C24.8876 30.2483 22.5016 31.0584 20.047 31.0588C18.1844 31.0599 16.3513 30.5939 14.7153 29.7035L8.79998 31.2517ZM14.9882 27.6847L15.327 27.8823C16.7509 28.7286 18.3765 29.1756 20.0329 29.1764C21.8677 29.1792 23.662 28.6375 25.1887 27.6199C26.7154 26.6023 27.9058 25.1546 28.6092 23.4601C29.3127 21.7655 29.4974 19.9003 29.1402 18.1007C28.7829 16.3011 27.8997 14.6479 26.6023 13.3505C25.7455 12.4852 24.7251 11.799 23.6005 11.3321C22.4758 10.8651 21.2695 10.6266 20.0517 10.6305C18.3949 10.6305 16.7683 11.0742 15.341 11.9156C13.9137 12.757 12.7379 13.9654 11.9357 15.4151C11.1335 16.8647 10.7343 18.5028 10.7795 20.1591C10.8248 21.8153 11.3128 23.4291 12.1929 24.8329L12.4141 25.1811L11.4729 28.6023L14.9882 27.6847ZM25.6659 22.5598C25.6074 22.4623 25.4712 22.3971 25.2681 22.2999L25.2675 22.2996C25.2259 22.2796 25.1814 22.2583 25.1341 22.2351L25.053 22.1952C24.6546 21.9992 23.4649 21.4139 23.2518 21.3269C23.0212 21.2328 22.8094 21.1857 22.6259 21.4681C22.4424 21.7504 21.9059 22.3716 21.7412 22.5598C21.5765 22.7481 21.4165 22.7669 21.1388 22.6304C20.3176 22.3026 19.5597 21.8344 18.8988 21.2469C18.2901 20.6827 17.7669 20.0327 17.3459 19.3175C17.3156 19.2724 17.2947 19.2216 17.2844 19.1682C17.2742 19.1148 17.2748 19.0599 17.2862 19.0068C17.2976 18.9537 17.3196 18.9034 17.3509 18.8589C17.3822 18.8145 17.4221 18.7768 17.4683 18.7481C17.5335 18.6828 17.6049 18.599 17.6781 18.5131L17.6781 18.5131C17.7475 18.4317 17.8184 18.3485 17.8871 18.2775C18.0004 18.1338 18.0938 17.9755 18.1647 17.8069C18.2027 17.7343 18.2225 17.6535 18.2225 17.5716C18.2225 17.4897 18.2027 17.4089 18.1647 17.3363C18.1169 17.2439 17.8468 16.5839 17.6058 15.995C17.491 15.7143 17.3827 15.4497 17.3083 15.2704C17.1034 14.777 16.8911 14.7889 16.734 14.7977C16.7143 14.7988 16.6955 14.7998 16.6777 14.7998H16.1459C16.0046 14.8033 15.8656 14.836 15.7376 14.8959C15.6096 14.9559 15.4955 15.0417 15.4024 15.1481C15.0869 15.4359 14.8336 15.7851 14.658 16.1744C14.4824 16.5636 14.3882 16.9846 14.3812 17.4116C14.3812 18.7435 15.3184 20.0267 15.5003 20.2758L15.5153 20.2963C15.5226 20.3064 15.5348 20.3239 15.5516 20.3483L15.552 20.3489C15.8517 20.7825 17.6329 23.3591 20.2777 24.5034C20.7977 24.726 21.3285 24.9223 21.8683 25.0916C22.4371 25.2631 23.038 25.3002 23.6236 25.1998C24.16 25.1198 25.2706 24.5269 25.5059 23.8775C25.6872 23.4634 25.7429 23.0052 25.6659 22.5598Z" fill="white"/>
</svg>
